<mxfile host="app.diagrams.net" modified="2023-10-23T11:19:33.338Z" agent="Mozilla/5.0 (Macintosh; Intel Mac OS X 10_15_7) AppleWebKit/537.36 (KHTML, like Gecko) Chrome/118.0.0.0 Safari/537.36" version="21.8.0" etag="V7EiwcA3kDmDP9Na82ek" type="github">
  <diagram name="Page-1" id="sTb5aIzIU9DBBp99tq6U">
    <mxGraphModel>
      <root>
        <mxCell id="0" />
        <mxCell id="1" parent="0" />
      </root>
    </mxGraphModel>
  </diagram>
</mxfile>
